<svg xmlns="http://www.w3.org/2000/svg" width="1024" height="1024" viewBox="0 0 100 100">
  <!-- Cambiora app icon: milled coin with a C and two bars (euro sign) on terracotta. Generated by tool/branding/build_icon.py, do not edit. -->
  <rect width="100" height="100" rx="23" fill="#C8401A"/>
  <path fill="#FFF4EC" d="M83.00 50.00L83.00 50.51L82.98 51.03L82.96 51.54L82.94 52.05L82.90 52.56L82.86 53.08L82.80 53.59L82.74 54.10L82.68 54.60L76.74 53.77L76.79 53.35L76.84 52.93L76.88 52.52L76.92 52.10L76.95 51.68L76.97 51.26L76.99 50.84L77.00 50.42L77.00 50.00ZM81.88 58.54L81.74 59.03L81.60 59.52L81.44 60.01L81.28 60.50L81.12 60.99L80.94 61.47L80.76 61.95L80.57 62.43L80.37 62.90L74.85 60.56L75.01 60.17L75.17 59.78L75.32 59.38L75.46 58.99L75.60 58.59L75.73 58.19L75.85 57.79L75.97 57.39L76.08 56.98ZM78.58 66.49L78.32 66.94L78.06 67.37L77.78 67.81L77.50 68.24L77.22 68.66L76.92 69.08L76.62 69.50L76.32 69.91L76.00 70.32L71.27 66.63L71.53 66.29L71.78 65.96L72.03 65.61L72.27 65.27L72.50 64.92L72.73 64.57L72.96 64.21L73.17 63.86L73.39 63.49ZM73.34 73.33L72.98 73.69L72.61 74.04L72.23 74.39L71.85 74.73L71.46 75.07L71.07 75.40L70.67 75.72L70.27 76.04L69.86 76.35L66.25 71.56L66.58 71.31L66.91 71.05L67.24 70.78L67.56 70.51L67.88 70.23L68.19 69.95L68.50 69.67L68.80 69.38L69.10 69.08ZM66.52 78.57L66.07 78.82L65.62 79.07L65.16 79.31L64.71 79.54L64.25 79.77L63.78 79.98L63.31 80.20L62.84 80.40L62.37 80.60L60.12 75.03L60.51 74.87L60.89 74.71L61.28 74.53L61.66 74.35L62.03 74.17L62.41 73.98L62.78 73.78L63.15 73.58L63.51 73.38ZM58.56 81.87L58.07 82.00L57.57 82.12L57.07 82.23L56.56 82.34L56.06 82.44L55.55 82.53L55.05 82.61L54.54 82.69L54.03 82.75L53.30 76.80L53.71 76.74L54.13 76.68L54.54 76.61L54.96 76.54L55.37 76.46L55.78 76.37L56.19 76.28L56.60 76.18L57.01 76.08ZM50.03 83.00L49.51 83.00L49.00 82.98L48.49 82.97L47.97 82.94L47.46 82.90L46.95 82.86L46.44 82.81L45.93 82.75L45.42 82.68L46.25 76.74L46.67 76.79L47.09 76.84L47.51 76.88L47.92 76.92L48.34 76.95L48.76 76.97L49.18 76.99L49.60 77.00L50.02 77.00ZM41.49 81.88L40.99 81.75L40.50 81.60L40.01 81.45L39.52 81.29L39.04 81.13L38.55 80.95L38.07 80.77L37.60 80.58L37.12 80.38L39.46 74.86L39.85 75.02L40.24 75.18L40.64 75.32L41.03 75.47L41.43 75.60L41.83 75.73L42.23 75.86L42.63 75.97L43.04 76.09ZM33.53 78.60L33.09 78.34L32.65 78.07L32.21 77.80L31.78 77.52L31.36 77.23L30.94 76.94L30.52 76.64L30.11 76.33L29.70 76.02L33.39 71.29L33.72 71.54L34.06 71.79L34.40 72.04L34.75 72.28L35.10 72.51L35.45 72.74L35.80 72.97L36.16 73.18L36.52 73.40ZM26.69 73.36L26.33 73.00L25.98 72.63L25.63 72.25L25.29 71.87L24.95 71.48L24.62 71.09L24.29 70.69L23.97 70.29L23.66 69.88L28.45 66.27L28.71 66.60L28.97 66.93L29.23 67.25L29.50 67.58L29.78 67.89L30.06 68.20L30.35 68.51L30.64 68.82L30.93 69.11ZM21.44 66.54L21.19 66.09L20.94 65.64L20.70 65.19L20.47 64.73L20.24 64.27L20.03 63.80L19.81 63.34L19.61 62.87L19.41 62.39L24.98 60.14L25.14 60.53L25.30 60.91L25.48 61.29L25.65 61.67L25.84 62.05L26.03 62.43L26.23 62.80L26.43 63.17L26.64 63.53ZM18.14 58.59L18.01 58.09L17.89 57.59L17.77 57.09L17.66 56.59L17.57 56.09L17.48 55.58L17.39 55.07L17.32 54.57L17.25 54.06L23.20 53.32L23.26 53.74L23.32 54.15L23.39 54.57L23.46 54.98L23.54 55.39L23.63 55.80L23.72 56.21L23.82 56.62L23.93 57.03ZM17.00 50.05L17.00 49.54L17.01 49.03L17.03 48.51L17.06 48.00L17.10 47.49L17.14 46.98L17.19 46.47L17.25 45.96L17.32 45.45L23.26 46.27L23.20 46.69L23.16 47.11L23.11 47.53L23.08 47.94L23.05 48.36L23.03 48.78L23.01 49.20L23.00 49.62L23.00 50.04ZM18.11 41.51L18.25 41.02L18.39 40.53L18.54 40.04L18.70 39.55L18.87 39.06L19.04 38.58L19.22 38.10L19.41 37.62L19.61 37.15L25.13 39.48L24.97 39.87L24.82 40.26L24.67 40.66L24.53 41.05L24.39 41.45L24.26 41.85L24.14 42.25L24.02 42.65L23.91 43.06ZM21.39 33.55L21.65 33.11L21.92 32.67L22.19 32.24L22.47 31.81L22.75 31.38L23.05 30.96L23.35 30.54L23.65 30.13L23.97 29.72L28.70 33.41L28.44 33.74L28.19 34.08L27.95 34.42L27.71 34.77L27.47 35.11L27.25 35.47L27.02 35.82L26.80 36.18L26.59 36.54ZM26.62 26.71L26.98 26.35L27.35 26.00L27.73 25.65L28.11 25.30L28.50 24.97L28.89 24.63L29.29 24.31L29.69 23.99L30.10 23.68L33.72 28.46L33.38 28.72L33.05 28.98L32.73 29.25L32.41 29.52L32.09 29.79L31.78 30.07L31.47 30.36L31.17 30.65L30.87 30.95ZM33.44 21.46L33.89 21.20L34.34 20.95L34.79 20.71L35.25 20.48L35.71 20.26L36.17 20.04L36.64 19.83L37.11 19.62L37.58 19.42L39.84 24.98L39.45 25.14L39.07 25.31L38.69 25.48L38.31 25.66L37.93 25.85L37.55 26.04L37.18 26.24L36.82 26.44L36.45 26.65ZM41.39 18.14L41.88 18.01L42.38 17.89L42.88 17.78L43.38 17.67L43.89 17.57L44.39 17.48L44.90 17.40L45.41 17.32L45.92 17.25L46.66 23.21L46.24 23.26L45.83 23.32L45.41 23.39L45.00 23.47L44.59 23.55L44.18 23.64L43.77 23.73L43.36 23.83L42.95 23.94ZM49.92 17.00L50.43 17.00L50.95 17.01L51.46 17.03L51.97 17.06L52.49 17.09L53.00 17.14L53.51 17.19L54.02 17.25L54.53 17.31L53.70 23.26L53.29 23.20L52.87 23.15L52.45 23.11L52.03 23.08L51.61 23.05L51.20 23.03L50.78 23.01L50.36 23.00L49.94 23.00ZM58.46 18.10L58.96 18.24L59.45 18.38L59.94 18.53L60.43 18.69L60.91 18.86L61.40 19.03L61.88 19.21L62.35 19.40L62.83 19.60L60.50 25.12L60.11 24.96L59.72 24.81L59.32 24.66L58.93 24.52L58.53 24.38L58.13 24.25L57.73 24.13L57.33 24.01L56.92 23.90ZM66.42 21.38L66.87 21.64L67.31 21.90L67.74 22.17L68.17 22.45L68.60 22.74L69.02 23.03L69.44 23.33L69.85 23.64L70.26 23.95L66.57 28.69L66.24 28.43L65.90 28.18L65.56 27.94L65.22 27.70L64.87 27.46L64.52 27.23L64.16 27.01L63.80 26.79L63.44 26.58ZM73.27 26.60L73.63 26.97L73.99 27.34L74.34 27.71L74.68 28.09L75.02 28.48L75.35 28.87L75.67 29.27L75.99 29.67L76.31 30.08L71.52 33.70L71.27 33.37L71.01 33.04L70.74 32.71L70.47 32.39L70.19 32.08L69.91 31.76L69.62 31.46L69.33 31.15L69.04 30.85ZM78.53 33.42L78.79 33.86L79.03 34.31L79.27 34.77L79.51 35.22L79.73 35.68L79.95 36.15L80.16 36.62L80.37 37.09L80.57 37.56L75.01 39.82L74.85 39.43L74.68 39.05L74.51 38.67L74.33 38.29L74.14 37.91L73.95 37.54L73.75 37.16L73.55 36.80L73.34 36.43ZM81.85 41.36L81.98 41.86L82.10 42.36L82.22 42.86L82.32 43.36L82.42 43.86L82.52 44.37L82.60 44.87L82.68 45.38L82.74 45.89L76.79 46.64L76.73 46.22L76.67 45.81L76.60 45.39L76.53 44.98L76.45 44.57L76.36 44.16L76.27 43.75L76.17 43.34L76.06 42.93ZM83.00 49.89L83.00 50.00L77.00 50.00L77.00 49.91Z"/>
  <path fill="#FFF4EC" d="M75.00 50.00L75.00 50.44L74.98 50.87L74.97 51.31L74.94 51.74L74.90 52.18L74.86 52.61L74.81 53.05L74.76 53.48L74.69 53.91L74.62 54.34L74.54 54.77L74.45 55.20L74.36 55.62L74.26 56.05L74.15 56.47L74.03 56.89L73.91 57.31L73.78 57.73L73.64 58.14L73.49 58.55L73.34 58.96L73.18 59.37L73.01 59.77L72.84 60.17L72.66 60.57L72.47 60.96L72.28 61.35L72.07 61.74L71.87 62.12L71.65 62.50L71.43 62.88L71.20 63.25L70.97 63.62L70.73 63.98L70.48 64.34L70.23 64.69L69.97 65.05L69.70 65.39L69.43 65.73L69.15 66.07L68.87 66.40L68.58 66.73L68.28 67.05L67.98 67.37L67.68 67.68L67.37 67.98L67.05 68.28L66.73 68.58L66.40 68.87L66.07 69.15L65.73 69.43L65.39 69.70L65.05 69.97L64.69 70.23L64.34 70.48L63.98 70.73L63.62 70.97L63.25 71.20L62.88 71.43L62.50 71.65L62.12 71.87L61.74 72.07L61.35 72.28L60.96 72.47L60.57 72.66L60.17 72.84L59.77 73.01L59.37 73.18L58.96 73.34L58.55 73.49L58.14 73.64L57.73 73.78L57.31 73.91L56.89 74.03L56.47 74.15L56.05 74.26L55.62 74.36L55.20 74.45L54.77 74.54L54.34 74.62L53.91 74.69L53.48 74.76L53.05 74.81L52.61 74.86L52.18 74.90L51.74 74.94L51.31 74.97L50.87 74.98L50.44 75.00L50.00 75.00L49.56 75.00L49.13 74.98L48.69 74.97L48.26 74.94L47.82 74.90L47.39 74.86L46.95 74.81L46.52 74.76L46.09 74.69L45.66 74.62L45.23 74.54L44.80 74.45L44.38 74.36L43.95 74.26L43.53 74.15L43.11 74.03L42.69 73.91L42.27 73.78L41.86 73.64L41.45 73.49L41.04 73.34L40.63 73.18L40.23 73.01L39.83 72.84L39.43 72.66L39.04 72.47L38.65 72.28L38.26 72.07L37.88 71.87L37.50 71.65L37.12 71.43L36.75 71.20L36.38 70.97L36.02 70.73L35.66 70.48L35.31 70.23L34.95 69.97L34.61 69.70L34.27 69.43L33.93 69.15L33.60 68.87L33.27 68.58L32.95 68.28L32.63 67.98L32.32 67.68L32.02 67.37L31.72 67.05L31.42 66.73L31.13 66.40L30.85 66.07L30.57 65.73L30.30 65.39L30.03 65.05L29.77 64.69L29.52 64.34L29.27 63.98L29.03 63.62L28.80 63.25L28.57 62.88L28.35 62.50L28.13 62.12L27.93 61.74L27.72 61.35L27.53 60.96L27.34 60.57L27.16 60.17L26.99 59.77L26.82 59.37L26.66 58.96L26.51 58.55L26.36 58.14L26.22 57.73L26.09 57.31L25.97 56.89L25.85 56.47L25.74 56.05L25.64 55.62L25.55 55.20L25.46 54.77L25.38 54.34L25.31 53.91L25.24 53.48L25.19 53.05L25.14 52.61L25.10 52.18L25.06 51.74L25.03 51.31L25.02 50.87L25.00 50.44L25.00 50.00L25.00 49.56L25.02 49.13L25.03 48.69L25.06 48.26L25.10 47.82L25.14 47.39L25.19 46.95L25.24 46.52L25.31 46.09L25.38 45.66L25.46 45.23L25.55 44.80L25.64 44.38L25.74 43.95L25.85 43.53L25.97 43.11L26.09 42.69L26.22 42.27L26.36 41.86L26.51 41.45L26.66 41.04L26.82 40.63L26.99 40.23L27.16 39.83L27.34 39.43L27.53 39.04L27.72 38.65L27.93 38.26L28.13 37.88L28.35 37.50L28.57 37.12L28.80 36.75L29.03 36.38L29.27 36.02L29.52 35.66L29.77 35.31L30.03 34.95L30.30 34.61L30.57 34.27L30.85 33.93L31.13 33.60L31.42 33.27L31.72 32.95L32.02 32.63L32.32 32.32L32.63 32.02L32.95 31.72L33.27 31.42L33.60 31.13L33.93 30.85L34.27 30.57L34.61 30.30L34.95 30.03L35.31 29.77L35.66 29.52L36.02 29.27L36.38 29.03L36.75 28.80L37.12 28.57L37.50 28.35L37.88 28.13L38.26 27.93L38.65 27.72L39.04 27.53L39.43 27.34L39.83 27.16L40.23 26.99L40.63 26.82L41.04 26.66L41.45 26.51L41.86 26.36L42.27 26.22L42.69 26.09L43.11 25.97L43.53 25.85L43.95 25.74L44.38 25.64L44.80 25.55L45.23 25.46L45.66 25.38L46.09 25.31L46.52 25.24L46.95 25.19L47.39 25.14L47.82 25.10L48.26 25.06L48.69 25.03L49.13 25.02L49.56 25.00L50.00 25.00L50.44 25.00L50.87 25.02L51.31 25.03L51.74 25.06L52.18 25.10L52.61 25.14L53.05 25.19L53.48 25.24L53.91 25.31L54.34 25.38L54.77 25.46L55.20 25.55L55.62 25.64L56.05 25.74L56.47 25.85L56.89 25.97L57.31 26.09L57.73 26.22L58.14 26.36L58.55 26.51L58.96 26.66L59.37 26.82L59.77 26.99L60.17 27.16L60.57 27.34L60.96 27.53L61.35 27.72L61.74 27.93L62.12 28.13L62.50 28.35L62.88 28.57L63.25 28.80L63.62 29.03L63.98 29.27L64.34 29.52L64.69 29.77L65.05 30.03L65.39 30.30L65.73 30.57L66.07 30.85L66.40 31.13L66.73 31.42L67.05 31.72L67.37 32.02L67.68 32.32L67.98 32.63L68.28 32.95L68.58 33.27L68.87 33.60L69.15 33.93L69.43 34.27L69.70 34.61L69.97 34.95L70.23 35.31L70.48 35.66L70.73 36.02L70.97 36.38L71.20 36.75L71.43 37.12L71.65 37.50L71.87 37.88L72.07 38.26L72.28 38.65L72.47 39.04L72.66 39.43L72.84 39.83L73.01 40.23L73.18 40.63L73.34 41.04L73.49 41.45L73.64 41.86L73.78 42.27L73.91 42.69L74.03 43.11L74.15 43.53L74.26 43.95L74.36 44.38L74.45 44.80L74.54 45.23L74.62 45.66L74.69 46.09L74.76 46.52L74.81 46.95L74.86 47.39L74.90 47.82L74.94 48.26L74.97 48.69L74.98 49.13L75.00 49.56Z"/>
  <path fill="#C8401A" d="M66.42 37.98L66.21 37.77L65.99 37.57L65.78 37.37L65.55 37.17L65.33 36.98L65.10 36.79L64.87 36.60L64.63 36.42L64.39 36.25L64.15 36.07L63.91 35.91L63.66 35.74L63.41 35.58L63.16 35.43L62.90 35.28L62.64 35.13L62.38 34.99L62.12 34.85L61.85 34.72L61.58 34.59L61.31 34.47L61.04 34.35L60.77 34.24L60.49 34.13L60.21 34.03L59.93 33.93L59.65 33.83L59.37 33.74L59.09 33.66L58.80 33.58L58.51 33.50L58.22 33.44L57.93 33.37L57.64 33.31L57.35 33.26L57.06 33.21L56.77 33.17L56.47 33.13L56.18 33.09L55.88 33.06L55.59 33.04L55.29 33.02L54.99 33.01L54.70 33.00L54.40 33.00L54.10 33.00L53.81 33.01L53.51 33.02L53.21 33.04L52.92 33.06L52.62 33.09L52.33 33.13L52.03 33.17L51.74 33.21L51.45 33.26L51.16 33.31L50.87 33.37L50.58 33.44L50.29 33.50L50.00 33.58L49.71 33.66L49.43 33.74L49.15 33.83L48.87 33.93L48.59 34.03L48.31 34.13L48.03 34.24L47.76 34.35L47.49 34.47L47.22 34.59L46.95 34.72L46.68 34.85L46.42 34.99L46.16 35.13L45.90 35.28L45.64 35.43L45.39 35.58L45.14 35.74L44.89 35.91L44.65 36.07L44.41 36.25L44.17 36.42L43.93 36.60L43.70 36.79L43.47 36.98L43.25 37.17L43.02 37.37L42.81 37.57L42.59 37.77L42.38 37.98L42.17 38.19L41.97 38.41L41.77 38.62L41.57 38.85L41.38 39.07L41.19 39.30L41.00 39.53L40.82 39.77L40.65 40.01L40.47 40.25L40.31 40.49L40.14 40.74L39.98 40.99L39.83 41.24L39.68 41.50L39.53 41.76L39.39 42.02L39.25 42.28L39.12 42.55L38.99 42.82L38.87 43.09L38.75 43.36L38.64 43.63L38.53 43.91L38.43 44.19L38.33 44.47L38.23 44.75L38.14 45.03L38.06 45.31L37.98 45.60L37.90 45.89L37.84 46.18L37.77 46.47L37.71 46.76L37.66 47.05L37.61 47.34L37.57 47.63L37.53 47.93L37.49 48.22L37.46 48.52L37.44 48.81L37.42 49.11L37.41 49.41L37.40 49.70L37.40 50.00L37.40 50.30L37.41 50.59L37.42 50.89L37.44 51.19L37.46 51.48L37.49 51.78L37.53 52.07L37.57 52.37L37.61 52.66L37.66 52.95L37.71 53.24L37.77 53.53L37.84 53.82L37.90 54.11L37.98 54.40L38.06 54.69L38.14 54.97L38.23 55.25L38.33 55.53L38.43 55.81L38.53 56.09L38.64 56.37L38.75 56.64L38.87 56.91L38.99 57.18L39.12 57.45L39.25 57.72L39.39 57.98L39.53 58.24L39.68 58.50L39.83 58.76L39.98 59.01L40.14 59.26L40.31 59.51L40.47 59.75L40.65 59.99L40.82 60.23L41.00 60.47L41.19 60.70L41.38 60.93L41.57 61.15L41.77 61.38L41.97 61.59L42.17 61.81L42.38 62.02L42.59 62.23L42.81 62.43L43.02 62.63L43.25 62.83L43.47 63.02L43.70 63.21L43.93 63.40L44.17 63.58L44.41 63.75L44.65 63.93L44.89 64.09L45.14 64.26L45.39 64.42L45.64 64.57L45.90 64.72L46.16 64.87L46.42 65.01L46.68 65.15L46.95 65.28L47.22 65.41L47.49 65.53L47.76 65.65L48.03 65.76L48.31 65.87L48.59 65.97L48.87 66.07L49.15 66.17L49.43 66.26L49.71 66.34L50.00 66.42L50.29 66.50L50.58 66.56L50.87 66.63L51.16 66.69L51.45 66.74L51.74 66.79L52.03 66.83L52.33 66.87L52.62 66.91L52.92 66.94L53.21 66.96L53.51 66.98L53.81 66.99L54.10 67.00L54.40 67.00L54.70 67.00L54.99 66.99L55.29 66.98L55.59 66.96L55.88 66.94L56.18 66.91L56.47 66.87L56.77 66.83L57.06 66.79L57.35 66.74L57.64 66.69L57.93 66.63L58.22 66.56L58.51 66.50L58.80 66.42L59.09 66.34L59.37 66.26L59.65 66.17L59.93 66.07L60.21 65.97L60.49 65.87L60.77 65.76L61.04 65.65L61.31 65.53L61.58 65.41L61.85 65.28L62.12 65.15L62.38 65.01L62.64 64.87L62.90 64.72L63.16 64.57L63.41 64.42L63.66 64.26L63.91 64.09L64.15 63.93L64.39 63.75L64.63 63.58L64.87 63.40L65.10 63.21L65.33 63.02L65.55 62.83L65.78 62.63L65.99 62.43L66.21 62.23L66.42 62.02L66.42 62.02L66.46 61.98L66.51 61.93L66.55 61.89L66.59 61.84L66.63 61.80L66.67 61.75L66.70 61.70L66.74 61.65L66.78 61.60L66.81 61.55L66.85 61.50L66.88 61.45L66.91 61.40L66.95 61.35L66.98 61.30L67.01 61.24L67.04 61.19L67.06 61.13L67.09 61.08L67.12 61.03L67.14 60.97L67.17 60.91L67.19 60.86L67.21 60.80L67.23 60.74L67.26 60.69L67.27 60.63L67.29 60.57L67.31 60.51L67.33 60.45L67.34 60.39L67.36 60.33L67.37 60.27L67.38 60.21L67.39 60.15L67.40 60.09L67.41 60.03L67.42 59.97L67.43 59.91L67.43 59.85L67.44 59.79L67.44 59.73L67.44 59.67L67.45 59.61L67.45 59.55L67.45 59.48L67.44 59.42L67.44 59.36L67.44 59.30L67.43 59.24L67.43 59.18L67.42 59.12L67.41 59.06L67.40 59.00L67.39 58.94L67.38 58.88L67.37 58.82L67.36 58.76L67.34 58.70L67.33 58.64L67.31 58.58L67.29 58.52L67.27 58.46L67.26 58.41L67.23 58.35L67.21 58.29L67.19 58.23L67.17 58.18L67.14 58.12L67.12 58.07L67.09 58.01L67.06 57.96L67.04 57.90L67.01 57.85L66.98 57.80L66.95 57.74L66.91 57.69L66.88 57.64L66.85 57.59L66.81 57.54L66.78 57.49L66.74 57.44L66.70 57.39L66.67 57.34L66.63 57.30L66.59 57.25L66.55 57.20L66.51 57.16L66.46 57.11L66.42 57.07L66.38 57.03L66.33 56.99L66.29 56.94L66.24 56.90L66.20 56.86L66.15 56.83L66.10 56.79L66.05 56.75L66.00 56.71L65.95 56.68L65.90 56.64L65.85 56.61L65.80 56.58L65.75 56.55L65.70 56.51L65.64 56.48L65.59 56.46L65.53 56.43L65.48 56.40L65.43 56.37L65.37 56.35L65.31 56.32L65.26 56.30L65.20 56.28L65.14 56.26L65.09 56.24L65.03 56.22L64.97 56.20L64.91 56.18L64.85 56.17L64.79 56.15L64.73 56.14L64.67 56.12L64.61 56.11L64.55 56.10L64.49 56.09L64.43 56.08L64.37 56.07L64.31 56.07L64.25 56.06L64.19 56.05L64.13 56.05L64.07 56.05L64.01 56.05L63.95 56.05L63.88 56.05L63.82 56.05L63.76 56.05L63.70 56.05L63.64 56.06L63.58 56.07L63.52 56.07L63.46 56.08L63.40 56.09L63.34 56.10L63.28 56.11L63.22 56.12L63.16 56.14L63.10 56.15L63.04 56.17L62.98 56.18L62.92 56.20L62.86 56.22L62.81 56.24L62.75 56.26L62.69 56.28L62.63 56.30L62.58 56.32L62.52 56.35L62.47 56.37L62.41 56.40L62.36 56.43L62.30 56.46L62.25 56.48L62.20 56.51L62.14 56.55L62.09 56.58L62.04 56.61L61.99 56.64L61.94 56.68L61.89 56.71L61.84 56.75L61.79 56.79L61.74 56.83L61.70 56.86L61.65 56.90L61.60 56.94L61.56 56.99L61.51 57.03L61.47 57.07L61.47 57.07L61.35 57.19L61.22 57.31L61.09 57.43L60.96 57.55L60.83 57.66L60.69 57.77L60.56 57.88L60.42 57.99L60.28 58.09L60.14 58.19L59.99 58.29L59.85 58.39L59.70 58.48L59.55 58.57L59.40 58.66L59.25 58.75L59.09 58.83L58.94 58.91L58.78 58.99L58.63 59.06L58.47 59.14L58.31 59.21L58.15 59.27L57.98 59.34L57.82 59.40L57.66 59.46L57.49 59.51L57.32 59.56L57.16 59.61L56.99 59.66L56.82 59.70L56.65 59.74L56.48 59.78L56.31 59.82L56.14 59.85L55.96 59.88L55.79 59.90L55.62 59.93L55.45 59.95L55.27 59.96L55.10 59.98L54.92 59.99L54.75 59.99L54.57 60.00L54.40 60.00L54.23 60.00L54.05 59.99L53.88 59.99L53.70 59.98L53.53 59.96L53.35 59.95L53.18 59.93L53.01 59.90L52.84 59.88L52.66 59.85L52.49 59.82L52.32 59.78L52.15 59.74L51.98 59.70L51.81 59.66L51.64 59.61L51.48 59.56L51.31 59.51L51.14 59.46L50.98 59.40L50.82 59.34L50.65 59.27L50.49 59.21L50.33 59.14L50.17 59.06L50.02 58.99L49.86 58.91L49.71 58.83L49.55 58.75L49.40 58.66L49.25 58.57L49.10 58.48L48.95 58.39L48.81 58.29L48.66 58.19L48.52 58.09L48.38 57.99L48.24 57.88L48.11 57.77L47.97 57.66L47.84 57.55L47.71 57.43L47.58 57.31L47.45 57.19L47.33 57.07L47.21 56.95L47.09 56.82L46.97 56.69L46.85 56.56L46.74 56.43L46.63 56.29L46.52 56.16L46.41 56.02L46.31 55.88L46.21 55.74L46.11 55.59L46.01 55.45L45.92 55.30L45.83 55.15L45.74 55.00L45.65 54.85L45.57 54.69L45.49 54.54L45.41 54.38L45.34 54.23L45.26 54.07L45.19 53.91L45.13 53.75L45.06 53.58L45.00 53.42L44.94 53.26L44.89 53.09L44.84 52.92L44.79 52.76L44.74 52.59L44.70 52.42L44.66 52.25L44.62 52.08L44.58 51.91L44.55 51.74L44.52 51.56L44.50 51.39L44.47 51.22L44.45 51.05L44.44 50.87L44.42 50.70L44.41 50.52L44.41 50.35L44.40 50.17L44.40 50.00L44.40 49.83L44.41 49.65L44.41 49.48L44.42 49.30L44.44 49.13L44.45 48.95L44.47 48.78L44.50 48.61L44.52 48.44L44.55 48.26L44.58 48.09L44.62 47.92L44.66 47.75L44.70 47.58L44.74 47.41L44.79 47.24L44.84 47.08L44.89 46.91L44.94 46.74L45.00 46.58L45.06 46.42L45.13 46.25L45.19 46.09L45.26 45.93L45.34 45.77L45.41 45.62L45.49 45.46L45.57 45.31L45.65 45.15L45.74 45.00L45.83 44.85L45.92 44.70L46.01 44.55L46.11 44.41L46.21 44.26L46.31 44.12L46.41 43.98L46.52 43.84L46.63 43.71L46.74 43.57L46.85 43.44L46.97 43.31L47.09 43.18L47.21 43.05L47.33 42.93L47.45 42.81L47.58 42.69L47.71 42.57L47.84 42.45L47.97 42.34L48.11 42.23L48.24 42.12L48.38 42.01L48.52 41.91L48.66 41.81L48.81 41.71L48.95 41.61L49.10 41.52L49.25 41.43L49.40 41.34L49.55 41.25L49.71 41.17L49.86 41.09L50.02 41.01L50.17 40.94L50.33 40.86L50.49 40.79L50.65 40.73L50.82 40.66L50.98 40.60L51.14 40.54L51.31 40.49L51.48 40.44L51.64 40.39L51.81 40.34L51.98 40.30L52.15 40.26L52.32 40.22L52.49 40.18L52.66 40.15L52.84 40.12L53.01 40.10L53.18 40.07L53.35 40.05L53.53 40.04L53.70 40.02L53.88 40.01L54.05 40.01L54.23 40.00L54.40 40.00L54.57 40.00L54.75 40.01L54.92 40.01L55.10 40.02L55.27 40.04L55.45 40.05L55.62 40.07L55.79 40.10L55.96 40.12L56.14 40.15L56.31 40.18L56.48 40.22L56.65 40.26L56.82 40.30L56.99 40.34L57.16 40.39L57.32 40.44L57.49 40.49L57.66 40.54L57.82 40.60L57.98 40.66L58.15 40.73L58.31 40.79L58.47 40.86L58.63 40.94L58.78 41.01L58.94 41.09L59.09 41.17L59.25 41.25L59.40 41.34L59.55 41.43L59.70 41.52L59.85 41.61L59.99 41.71L60.14 41.81L60.28 41.91L60.42 42.01L60.56 42.12L60.69 42.23L60.83 42.34L60.96 42.45L61.09 42.57L61.22 42.69L61.35 42.81L61.47 42.93L61.47 42.93L61.51 42.97L61.56 43.01L61.60 43.06L61.65 43.10L61.70 43.14L61.74 43.17L61.79 43.21L61.84 43.25L61.89 43.29L61.94 43.32L61.99 43.36L62.04 43.39L62.09 43.42L62.14 43.45L62.20 43.49L62.25 43.52L62.30 43.54L62.36 43.57L62.41 43.60L62.47 43.63L62.52 43.65L62.58 43.68L62.63 43.70L62.69 43.72L62.75 43.74L62.81 43.76L62.86 43.78L62.92 43.80L62.98 43.82L63.04 43.83L63.10 43.85L63.16 43.86L63.22 43.88L63.28 43.89L63.34 43.90L63.40 43.91L63.46 43.92L63.52 43.93L63.58 43.93L63.64 43.94L63.70 43.95L63.76 43.95L63.82 43.95L63.88 43.95L63.95 43.95L64.01 43.95L64.07 43.95L64.13 43.95L64.19 43.95L64.25 43.94L64.31 43.93L64.37 43.93L64.43 43.92L64.49 43.91L64.55 43.90L64.61 43.89L64.67 43.88L64.73 43.86L64.79 43.85L64.85 43.83L64.91 43.82L64.97 43.80L65.03 43.78L65.09 43.76L65.14 43.74L65.20 43.72L65.26 43.70L65.31 43.68L65.37 43.65L65.43 43.63L65.48 43.60L65.53 43.57L65.59 43.54L65.64 43.52L65.70 43.49L65.75 43.45L65.80 43.42L65.85 43.39L65.90 43.36L65.95 43.32L66.00 43.29L66.05 43.25L66.10 43.21L66.15 43.17L66.20 43.14L66.24 43.10L66.29 43.06L66.33 43.01L66.38 42.97L66.42 42.93L66.46 42.89L66.51 42.84L66.55 42.80L66.59 42.75L66.63 42.70L66.67 42.66L66.70 42.61L66.74 42.56L66.78 42.51L66.81 42.46L66.85 42.41L66.88 42.36L66.91 42.31L66.95 42.26L66.98 42.20L67.01 42.15L67.04 42.10L67.06 42.04L67.09 41.99L67.12 41.93L67.14 41.88L67.17 41.82L67.19 41.77L67.21 41.71L67.23 41.65L67.26 41.59L67.27 41.54L67.29 41.48L67.31 41.42L67.33 41.36L67.34 41.30L67.36 41.24L67.37 41.18L67.38 41.12L67.39 41.06L67.40 41.00L67.41 40.94L67.42 40.88L67.43 40.82L67.43 40.76L67.44 40.70L67.44 40.64L67.44 40.58L67.45 40.52L67.45 40.45L67.45 40.39L67.44 40.33L67.44 40.27L67.44 40.21L67.43 40.15L67.43 40.09L67.42 40.03L67.41 39.97L67.40 39.91L67.39 39.85L67.38 39.79L67.37 39.73L67.36 39.67L67.34 39.61L67.33 39.55L67.31 39.49L67.29 39.43L67.27 39.37L67.26 39.31L67.23 39.26L67.21 39.20L67.19 39.14L67.17 39.09L67.14 39.03L67.12 38.97L67.09 38.92L67.06 38.87L67.04 38.81L67.01 38.76L66.98 38.70L66.95 38.65L66.91 38.60L66.88 38.55L66.85 38.50L66.81 38.45L66.78 38.40L66.74 38.35L66.70 38.30L66.67 38.25L66.63 38.20L66.59 38.16L66.55 38.11L66.51 38.07L66.46 38.02L66.42 37.98ZM34.40 47.75L34.36 47.75L34.32 47.75L34.28 47.75L34.24 47.74L34.20 47.74L34.16 47.74L34.13 47.73L34.09 47.73L34.05 47.72L34.01 47.72L33.97 47.71L33.93 47.70L33.89 47.69L33.86 47.68L33.82 47.67L33.78 47.66L33.74 47.65L33.70 47.64L33.67 47.63L33.63 47.61L33.59 47.60L33.56 47.59L33.52 47.57L33.48 47.56L33.45 47.54L33.41 47.52L33.38 47.50L33.34 47.49L33.31 47.47L33.27 47.45L33.24 47.43L33.21 47.41L33.17 47.39L33.14 47.37L33.11 47.34L33.08 47.32L33.05 47.30L33.01 47.27L32.98 47.25L32.95 47.22L32.92 47.20L32.89 47.17L32.87 47.15L32.84 47.12L32.81 47.09L32.78 47.06L32.75 47.03L32.73 47.01L32.70 46.98L32.68 46.95L32.65 46.92L32.63 46.89L32.60 46.85L32.58 46.82L32.56 46.79L32.53 46.76L32.51 46.73L32.49 46.69L32.47 46.66L32.45 46.62L32.43 46.59L32.41 46.56L32.40 46.52L32.38 46.49L32.36 46.45L32.34 46.42L32.33 46.38L32.31 46.34L32.30 46.31L32.29 46.27L32.27 46.23L32.26 46.20L32.25 46.16L32.24 46.12L32.23 46.08L32.22 46.04L32.21 46.01L32.20 45.97L32.19 45.93L32.18 45.89L32.18 45.85L32.17 45.81L32.17 45.77L32.16 45.74L32.16 45.70L32.16 45.66L32.15 45.62L32.15 45.58L32.15 45.54L32.15 45.50L32.15 45.46L32.15 45.42L32.15 45.38L32.16 45.34L32.16 45.30L32.16 45.26L32.17 45.23L32.17 45.19L32.18 45.15L32.18 45.11L32.19 45.07L32.20 45.03L32.21 44.99L32.22 44.96L32.23 44.92L32.24 44.88L32.25 44.84L32.26 44.80L32.27 44.77L32.29 44.73L32.30 44.69L32.31 44.66L32.33 44.62L32.34 44.58L32.36 44.55L32.38 44.51L32.40 44.48L32.41 44.44L32.43 44.41L32.45 44.38L32.47 44.34L32.49 44.31L32.51 44.27L32.53 44.24L32.56 44.21L32.58 44.18L32.60 44.15L32.63 44.11L32.65 44.08L32.68 44.05L32.70 44.02L32.73 43.99L32.75 43.97L32.78 43.94L32.81 43.91L32.84 43.88L32.87 43.85L32.89 43.83L32.92 43.80L32.95 43.78L32.98 43.75L33.01 43.73L33.05 43.70L33.08 43.68L33.11 43.66L33.14 43.63L33.17 43.61L33.21 43.59L33.24 43.57L33.27 43.55L33.31 43.53L33.34 43.51L33.38 43.50L33.41 43.48L33.45 43.46L33.48 43.44L33.52 43.43L33.56 43.41L33.59 43.40L33.63 43.39L33.67 43.37L33.70 43.36L33.74 43.35L33.78 43.34L33.82 43.33L33.86 43.32L33.89 43.31L33.93 43.30L33.97 43.29L34.01 43.28L34.05 43.28L34.09 43.27L34.13 43.27L34.16 43.26L34.20 43.26L34.24 43.26L34.28 43.25L34.32 43.25L34.36 43.25L34.40 43.25L38.80 43.25L38.68 43.52L38.57 43.79L38.47 44.06L38.37 44.34L38.27 44.62L38.18 44.90L38.10 45.18L38.02 45.46L37.94 45.74L37.87 46.02L37.81 46.31L37.74 46.60L37.69 46.88L37.64 47.17L37.59 47.46L37.55 47.75ZM44.66 47.75L44.70 47.58L44.74 47.42L44.78 47.25L44.83 47.09L44.88 46.92L44.94 46.76L45.00 46.60L45.06 46.44L45.12 46.28L45.18 46.12L45.25 45.96L45.32 45.81L45.39 45.65L45.47 45.50L45.55 45.35L45.63 45.20L45.71 45.05L45.80 44.90L45.89 44.75L45.98 44.61L46.07 44.46L46.17 44.32L46.27 44.18L46.37 44.04L46.47 43.91L46.58 43.77L46.68 43.64L46.79 43.51L46.91 43.38L47.02 43.25L52.40 43.25L52.44 43.25L52.48 43.25L52.52 43.25L52.56 43.26L52.60 43.26L52.64 43.26L52.67 43.27L52.71 43.27L52.75 43.28L52.79 43.28L52.83 43.29L52.87 43.30L52.91 43.31L52.94 43.32L52.98 43.33L53.02 43.34L53.06 43.35L53.10 43.36L53.13 43.37L53.17 43.39L53.21 43.40L53.24 43.41L53.28 43.43L53.32 43.44L53.35 43.46L53.39 43.48L53.42 43.50L53.46 43.51L53.49 43.53L53.52 43.55L53.56 43.57L53.59 43.59L53.63 43.61L53.66 43.63L53.69 43.66L53.72 43.68L53.75 43.70L53.79 43.73L53.82 43.75L53.85 43.78L53.88 43.80L53.91 43.83L53.93 43.85L53.96 43.88L53.99 43.91L54.02 43.94L54.05 43.97L54.07 43.99L54.10 44.02L54.12 44.05L54.15 44.08L54.17 44.11L54.20 44.15L54.22 44.18L54.24 44.21L54.27 44.24L54.29 44.27L54.31 44.31L54.33 44.34L54.35 44.38L54.37 44.41L54.39 44.44L54.40 44.48L54.42 44.51L54.44 44.55L54.46 44.58L54.47 44.62L54.49 44.66L54.50 44.69L54.51 44.73L54.53 44.77L54.54 44.80L54.55 44.84L54.56 44.88L54.57 44.92L54.58 44.96L54.59 44.99L54.60 45.03L54.61 45.07L54.62 45.11L54.62 45.15L54.63 45.19L54.63 45.23L54.64 45.26L54.64 45.30L54.64 45.34L54.65 45.38L54.65 45.42L54.65 45.46L54.65 45.50L54.65 45.54L54.65 45.58L54.65 45.62L54.64 45.66L54.64 45.70L54.64 45.74L54.63 45.77L54.63 45.81L54.62 45.85L54.62 45.89L54.61 45.93L54.60 45.97L54.59 46.01L54.58 46.04L54.57 46.08L54.56 46.12L54.55 46.16L54.54 46.20L54.53 46.23L54.51 46.27L54.50 46.31L54.49 46.34L54.47 46.38L54.46 46.42L54.44 46.45L54.42 46.49L54.40 46.52L54.39 46.56L54.37 46.59L54.35 46.62L54.33 46.66L54.31 46.69L54.29 46.73L54.27 46.76L54.24 46.79L54.22 46.82L54.20 46.85L54.17 46.89L54.15 46.92L54.12 46.95L54.10 46.98L54.07 47.01L54.05 47.03L54.02 47.06L53.99 47.09L53.96 47.12L53.93 47.15L53.91 47.17L53.88 47.20L53.85 47.22L53.82 47.25L53.79 47.27L53.75 47.30L53.72 47.32L53.69 47.34L53.66 47.37L53.63 47.39L53.59 47.41L53.56 47.43L53.52 47.45L53.49 47.47L53.46 47.49L53.42 47.50L53.39 47.52L53.35 47.54L53.32 47.56L53.28 47.57L53.24 47.59L53.21 47.60L53.17 47.61L53.13 47.63L53.10 47.64L53.06 47.65L53.02 47.66L52.98 47.67L52.94 47.68L52.91 47.69L52.87 47.70L52.83 47.71L52.79 47.72L52.75 47.72L52.71 47.73L52.67 47.73L52.64 47.74L52.60 47.74L52.56 47.74L52.52 47.75L52.48 47.75L52.44 47.75L52.40 47.75ZM34.40 56.75L34.36 56.75L34.32 56.75L34.28 56.75L34.24 56.74L34.20 56.74L34.16 56.74L34.13 56.73L34.09 56.73L34.05 56.72L34.01 56.72L33.97 56.71L33.93 56.70L33.89 56.69L33.86 56.68L33.82 56.67L33.78 56.66L33.74 56.65L33.70 56.64L33.67 56.63L33.63 56.61L33.59 56.60L33.56 56.59L33.52 56.57L33.48 56.56L33.45 56.54L33.41 56.52L33.38 56.50L33.34 56.49L33.31 56.47L33.27 56.45L33.24 56.43L33.21 56.41L33.17 56.39L33.14 56.37L33.11 56.34L33.08 56.32L33.05 56.30L33.01 56.27L32.98 56.25L32.95 56.22L32.92 56.20L32.89 56.17L32.87 56.15L32.84 56.12L32.81 56.09L32.78 56.06L32.75 56.03L32.73 56.01L32.70 55.98L32.68 55.95L32.65 55.92L32.63 55.89L32.60 55.85L32.58 55.82L32.56 55.79L32.53 55.76L32.51 55.73L32.49 55.69L32.47 55.66L32.45 55.62L32.43 55.59L32.41 55.56L32.40 55.52L32.38 55.49L32.36 55.45L32.34 55.42L32.33 55.38L32.31 55.34L32.30 55.31L32.29 55.27L32.27 55.23L32.26 55.20L32.25 55.16L32.24 55.12L32.23 55.08L32.22 55.04L32.21 55.01L32.20 54.97L32.19 54.93L32.18 54.89L32.18 54.85L32.17 54.81L32.17 54.77L32.16 54.74L32.16 54.70L32.16 54.66L32.15 54.62L32.15 54.58L32.15 54.54L32.15 54.50L32.15 54.46L32.15 54.42L32.15 54.38L32.16 54.34L32.16 54.30L32.16 54.26L32.17 54.23L32.17 54.19L32.18 54.15L32.18 54.11L32.19 54.07L32.20 54.03L32.21 53.99L32.22 53.96L32.23 53.92L32.24 53.88L32.25 53.84L32.26 53.80L32.27 53.77L32.29 53.73L32.30 53.69L32.31 53.66L32.33 53.62L32.34 53.58L32.36 53.55L32.38 53.51L32.40 53.48L32.41 53.44L32.43 53.41L32.45 53.38L32.47 53.34L32.49 53.31L32.51 53.27L32.53 53.24L32.56 53.21L32.58 53.18L32.60 53.15L32.63 53.11L32.65 53.08L32.68 53.05L32.70 53.02L32.73 52.99L32.75 52.97L32.78 52.94L32.81 52.91L32.84 52.88L32.87 52.85L32.89 52.83L32.92 52.80L32.95 52.78L32.98 52.75L33.01 52.73L33.05 52.70L33.08 52.68L33.11 52.66L33.14 52.63L33.17 52.61L33.21 52.59L33.24 52.57L33.27 52.55L33.31 52.53L33.34 52.51L33.38 52.50L33.41 52.48L33.45 52.46L33.48 52.44L33.52 52.43L33.56 52.41L33.59 52.40L33.63 52.39L33.67 52.37L33.70 52.36L33.74 52.35L33.78 52.34L33.82 52.33L33.86 52.32L33.89 52.31L33.93 52.30L33.97 52.29L34.01 52.28L34.05 52.28L34.09 52.27L34.13 52.27L34.16 52.26L34.20 52.26L34.24 52.26L34.28 52.25L34.32 52.25L34.36 52.25L34.40 52.25L37.55 52.25L37.59 52.54L37.64 52.83L37.69 53.12L37.74 53.40L37.81 53.69L37.87 53.98L37.94 54.26L38.02 54.54L38.10 54.82L38.18 55.10L38.27 55.38L38.37 55.66L38.47 55.94L38.57 56.21L38.68 56.48L38.80 56.75ZM47.02 56.75L46.91 56.62L46.79 56.49L46.68 56.36L46.58 56.23L46.47 56.09L46.37 55.96L46.27 55.82L46.17 55.68L46.07 55.54L45.98 55.39L45.89 55.25L45.80 55.10L45.71 54.95L45.63 54.80L45.55 54.65L45.47 54.50L45.39 54.35L45.32 54.19L45.25 54.04L45.18 53.88L45.12 53.72L45.06 53.56L45.00 53.40L44.94 53.24L44.88 53.08L44.83 52.91L44.78 52.75L44.74 52.58L44.70 52.42L44.66 52.25L50.40 52.25L50.44 52.25L50.48 52.25L50.52 52.25L50.56 52.26L50.60 52.26L50.64 52.26L50.67 52.27L50.71 52.27L50.75 52.28L50.79 52.28L50.83 52.29L50.87 52.30L50.91 52.31L50.94 52.32L50.98 52.33L51.02 52.34L51.06 52.35L51.10 52.36L51.13 52.37L51.17 52.39L51.21 52.40L51.24 52.41L51.28 52.43L51.32 52.44L51.35 52.46L51.39 52.48L51.42 52.50L51.46 52.51L51.49 52.53L51.52 52.55L51.56 52.57L51.59 52.59L51.63 52.61L51.66 52.63L51.69 52.66L51.72 52.68L51.75 52.70L51.79 52.73L51.82 52.75L51.85 52.78L51.88 52.80L51.91 52.83L51.93 52.85L51.96 52.88L51.99 52.91L52.02 52.94L52.05 52.97L52.07 52.99L52.10 53.02L52.12 53.05L52.15 53.08L52.17 53.11L52.20 53.15L52.22 53.18L52.24 53.21L52.27 53.24L52.29 53.27L52.31 53.31L52.33 53.34L52.35 53.38L52.37 53.41L52.39 53.44L52.40 53.48L52.42 53.51L52.44 53.55L52.46 53.58L52.47 53.62L52.49 53.66L52.50 53.69L52.51 53.73L52.53 53.77L52.54 53.80L52.55 53.84L52.56 53.88L52.57 53.92L52.58 53.96L52.59 53.99L52.60 54.03L52.61 54.07L52.62 54.11L52.62 54.15L52.63 54.19L52.63 54.23L52.64 54.26L52.64 54.30L52.64 54.34L52.65 54.38L52.65 54.42L52.65 54.46L52.65 54.50L52.65 54.54L52.65 54.58L52.65 54.62L52.64 54.66L52.64 54.70L52.64 54.74L52.63 54.77L52.63 54.81L52.62 54.85L52.62 54.89L52.61 54.93L52.60 54.97L52.59 55.01L52.58 55.04L52.57 55.08L52.56 55.12L52.55 55.16L52.54 55.20L52.53 55.23L52.51 55.27L52.50 55.31L52.49 55.34L52.47 55.38L52.46 55.42L52.44 55.45L52.42 55.49L52.40 55.52L52.39 55.56L52.37 55.59L52.35 55.62L52.33 55.66L52.31 55.69L52.29 55.73L52.27 55.76L52.24 55.79L52.22 55.82L52.20 55.85L52.17 55.89L52.15 55.92L52.12 55.95L52.10 55.98L52.07 56.01L52.05 56.03L52.02 56.06L51.99 56.09L51.96 56.12L51.93 56.15L51.91 56.17L51.88 56.20L51.85 56.22L51.82 56.25L51.79 56.27L51.75 56.30L51.72 56.32L51.69 56.34L51.66 56.37L51.63 56.39L51.59 56.41L51.56 56.43L51.52 56.45L51.49 56.47L51.46 56.49L51.42 56.50L51.39 56.52L51.35 56.54L51.32 56.56L51.28 56.57L51.24 56.59L51.21 56.60L51.17 56.61L51.13 56.63L51.10 56.64L51.06 56.65L51.02 56.66L50.98 56.67L50.94 56.68L50.91 56.69L50.87 56.70L50.83 56.71L50.79 56.72L50.75 56.72L50.71 56.73L50.67 56.73L50.64 56.74L50.60 56.74L50.56 56.74L50.52 56.75L50.48 56.75L50.44 56.75L50.40 56.75Z"/>
</svg>
